<svg id="Layer_1" enable-background="new 0 0 512 512" viewBox="0 0 512 512" xmlns="http://www.w3.org/2000/svg"><g><path d="m373.437 188.586c-35.558 9.37-80.116 21.076-117.437 30.825l-9.213 16.312 9.213 14.704c28.463-7.423 68.551-17.935 125.081-32.831z" fill="#218ed2"/><path d="m256 219.41v31.02c-67.29 17.55-69.6 17.83-70.55 17.94l-3.58-29.84c6.32-1.47 36.56-9.31 74.13-19.12z" fill="#69f"/><ellipse cx="89.565" cy="348.091" fill="#1f5c99" rx="89.565" ry="89.569" transform="matrix(.999 -.036 .036 .999 -12.351 3.414)"/><ellipse cx="422.435" cy="348.091" fill="#193c80" rx="89.569" ry="89.565" transform="matrix(.031 -1 1 .031 61.331 759.458)"/><path d="m422.435 288.522c-32.844 0-59.564 26.723-59.564 59.568 0 32.847 26.721 59.569 59.564 59.569 32.845 0 59.565-26.723 59.565-59.569 0-32.845-26.721-59.568-59.565-59.568z" fill="#e3e7f4"/><path d="m89.565 288.522c-32.844 0-59.565 26.723-59.565 59.569 0 32.847 26.721 59.569 59.565 59.569s59.564-26.723 59.564-59.569c.001-32.846-26.72-59.569-59.564-59.569z" fill="#f5f8f9"/><path d="m145.208 212.036 29.388-8.457-31.269-59.232h-33.946z" fill="#e3e7f4"/><path d="m203.84 149.34h-116.096v-60h58.985c31.542 0 57.111 25.57 57.111 57.111z" fill="#fee049"/><path d="m304.231 74.34v30h51.578l12.765-15-12.765-15z" fill="#feb556"/><path d="m436.756 343.629-56.057-179.923h.058c24.638 0 44.682-20.045 44.682-44.684 0-24.638-20.044-44.683-44.682-44.683h-24.948v30h24.948c8.096 0 14.682 6.587 14.682 14.683s-6.586 14.683-14.682 14.683h-40.827l21.683 69.595-105.613 101.679-7.681 23.681 7.681 17.96 115.596-111.276 36.518 117.21z" fill="#69f"/><path d="m236.896 323.371-62.3-119.793h-33.953l-64.664 138.154 13.586 21.359h149.325v-.001l17.11-16.471v-41.64zm-123.748 9.72 44.993-96.129 49.995 96.129z" fill="#60b7fd"/></g><g/><g/><g/><g/><g/><g/><g/><g/><g/><g/><g/><g/><g/><g/><g/></svg>